<?xml version="1.0" encoding="utf-8"?>
<svg viewBox="0 0 500 500" xmlns="http://www.w3.org/2000/svg">
  <path d="M 248.158 222.528 L 229.701 237.564 L 241.756 237.564 L 241.756 286.44 L 248.158 281.283 L 248.158 222.528 Z" fill="#5A29E4" style=""/>
  <path d="M 253.478 276.918 L 272.26 261.504 L 259.867 261.504 L 259.867 213.745 L 253.478 218.195 L 253.478 276.918 Z" fill="#5A29E4" style=""/>
  <path d="M 485.956 231.308 C 488.084 232.415 489.616 233.351 490.552 234.117 L 497.191 221.477 C 493.872 219.434 489.871 217.604 485.19 215.987 C 480.593 214.37 475.614 213.561 470.251 213.561 C 465.144 213.561 460.42 214.412 456.079 216.115 C 451.823 217.817 448.419 220.328 445.865 223.647 C 443.397 226.967 442.163 231.095 442.163 236.032 C 442.163 241.565 443.907 245.821 447.397 248.8 C 450.972 251.694 456.42 254.077 463.74 255.95 C 469.613 257.482 474.337 258.886 477.912 260.163 C 481.572 261.355 483.402 263.355 483.402 266.164 C 483.402 270.335 479.487 272.42 471.656 272.42 C 467.74 272.42 464.038 271.952 460.548 271.015 C 457.058 270.079 453.994 268.93 451.355 267.568 C 448.802 266.206 446.972 264.972 445.865 263.866 L 438.971 277.272 C 443.397 280.08 448.461 282.294 454.164 283.911 C 459.867 285.528 465.612 286.337 471.4 286.337 C 476.422 286.337 481.104 285.656 485.445 284.294 C 489.786 282.847 493.276 280.549 495.914 277.399 C 498.638 274.165 500 269.909 500 264.632 C 500 260.291 498.979 256.801 496.936 254.162 C 494.978 251.438 492.127 249.268 488.381 247.651 C 484.721 246.033 480.38 244.586 475.358 243.31 C 469.656 241.948 465.315 240.714 462.335 239.607 C 459.441 238.5 457.994 236.628 457.994 233.989 C 457.994 229.478 461.995 227.222 469.996 227.222 C 472.975 227.222 475.869 227.648 478.678 228.499 C 481.487 229.265 483.913 230.202 485.956 231.308 Z" fill="#5A29E4" style=""/>
  <path fill-rule="evenodd" clip-rule="evenodd" d="M 351.595 285.954 C 345.977 285.954 340.87 284.975 336.273 283.017 C 331.677 280.974 327.716 278.25 324.397 274.846 C 321.077 271.356 318.524 267.441 316.736 263.1 C 314.951 258.759 314.055 254.29 314.055 249.693 C 314.055 245.012 314.991 240.501 316.864 236.16 C 318.737 231.819 321.378 227.988 324.783 224.669 C 328.187 221.264 332.185 218.583 336.782 216.625 C 341.378 214.668 346.4 213.689 351.847 213.689 C 357.465 213.689 362.575 214.753 367.171 216.881 C 371.768 218.923 375.683 221.69 378.917 225.18 C 382.237 228.584 384.788 232.457 386.575 236.798 C 388.363 241.139 389.259 245.565 389.259 250.076 C 389.259 254.758 388.323 259.269 386.45 263.61 C 384.578 267.866 381.936 271.696 378.532 275.101 C 375.212 278.421 371.257 281.059 366.66 283.017 C 362.064 284.975 357.042 285.954 351.595 285.954 Z M 329.632 249.821 C 329.632 253.651 330.528 257.312 332.315 260.801 C 334.1 264.206 336.611 266.972 339.846 269.1 C 343.165 271.228 347.123 272.292 351.72 272.292 C 356.401 272.292 360.359 271.186 363.594 268.973 C 366.831 266.674 369.296 263.823 370.999 260.418 C 372.701 256.928 373.555 253.354 373.555 249.693 C 373.555 245.863 372.661 242.246 370.874 238.841 C 369.086 235.436 366.533 232.712 363.211 230.67 C 359.976 228.542 356.106 227.478 351.595 227.478 C 346.913 227.478 342.91 228.584 339.59 230.797 C 336.356 233.01 333.888 235.819 332.185 239.224 C 330.483 242.629 329.632 246.161 329.632 249.821 Z" fill="#5A29E4" style=""/>
  <path fill-rule="evenodd" clip-rule="evenodd" d="M 0 285.443 L 31.153 214.072 L 43.793 214.072 L 74.818 285.443 L 58.476 285.443 L 51.326 268.717 L 23.62 268.717 L 16.47 285.443 L 0 285.443 Z M 37.537 232.84 L 27.067 255.311 L 47.623 255.311 L 37.537 232.84 Z" fill="#5A29E4" style=""/>
  <path d="M 135.18 214.072 L 154.842 239.352 L 174.505 214.072 L 191.23 214.072 L 163.014 250.204 L 190.336 285.443 L 173.611 285.443 L 154.842 261.184 L 136.202 285.443 L 119.221 285.443 L 146.671 250.204 L 118.327 214.072 L 135.18 214.072 Z" fill="#5A29E4" style=""/>
</svg>