<?xml version="1.0" encoding="utf-8"?>
<svg viewBox="0 0 500 500" xmlns="http://www.w3.org/2000/svg">
  <g transform="matrix(0.034631, 0, 0, -0.034631, 72.845123, 500.070435)" fill="#000000" stroke="none" style="">
    <path d="M2410 13465 l0 -975 775 0 775 0 0 325 0 325 -450 0 -450 0 0 325 0 325 450 0 450 0 0 325 0 325 -775 0 -775 0 0 -975z"/>
    <path d="M4270 13805 l0 -635 450 0 450 0 0 -55 0 -55 -450 0 -450 0 0 -295 0 -295 775 0 775 0 0 645 0 645 -450 0 -450 0 0 60 0 60 450 0 450 0 0 280 0 280 -775 0 -775 0 0 -635z"/>
    <path d="M6130 13805 l0 -635 450 0 450 0 0 -55 0 -55 -450 0 -450 0 0 -295 0 -295 775 0 775 0 0 645 0 645 -450 0 -450 0 0 60 0 60 450 0 450 0 0 280 0 280 -775 0 -775 0 0 -635z"/>
    <path d="M4 11568 c3 -18 213 -2366 467 -5218 254 -2852 462 -5186 463 -5187 1 -1 941 -263 2089 -581 l2088 -580 2092 580 c1151 319 2093 580 2094 581 1 1 209 2326 462 5167 254 2841 464 5189 467 5218 l6 52 -5116 0 -5117 0 5 -32z m8316 -2121 c0 -13 -58 -678 -130 -1478 -71 -800 -202 -2257 -289 -3237 -88 -981 -162 -1786 -165 -1789 -2 -3 -594 -168 -1314 -368 l-1309 -363 -1308 364 c-720 200 -1311 367 -1315 371 -7 7 -180 1924 -180 1986 l0 27 642 -2 643 -3 45 -510 45 -510 710 -192 710 -193 710 191 c391 105 713 194 717 197 4 4 40 377 80 830 l74 822 -2218 0 c-1220 0 -2218 1 -2219 3 -5 22 -115 1274 -112 1280 2 4 1052 7 2334 7 2035 0 2329 2 2329 15 0 8 25 292 55 631 30 340 55 626 55 636 0 17 -85 18 -2444 18 l-2444 0 -6 48 c-3 26 -28 299 -56 607 -27 308 -52 577 -55 598 l-5 37 3210 0 3210 0 0 -23z" style="fill: rgb(33, 76, 229);"/>
  </g>
</svg>