<?xml version="1.0" encoding="utf-8"?>
<svg viewBox="0 0 500 500" xmlns="http://www.w3.org/2000/svg">
  <rect width="500" height="500" style=""/>
  <path d="M 250 19.113 C 147.948 19.113 65.29 101.771 65.29 203.823 L 157.645 203.823 C 157.645 152.843 199.02 111.468 250 111.468 L 250 19.113 Z" fill="#D6FF00" style=""/>
  <path d="M 434.71 203.823 C 434.71 101.771 352.052 19.113 250 19.113 L 250 111.468 C 300.98 111.468 342.355 152.843 342.355 203.823 L 434.71 203.823 Z" fill="#34E27A" style=""/>
  <path d="M 250 388.533 C 352.052 388.533 434.71 305.875 434.71 203.823 L 342.355 203.823 C 342.355 254.803 300.98 296.178 250 296.178 L 250 388.533 Z" fill="#00B9F1" style=""/>
  <path d="M 157.645 388.533 L 157.645 203.823 L 65.29 203.823 L 65.29 480.888 L 250 480.888 L 250 388.533 L 157.645 388.533 Z" fill="#FFF" style=""/>
</svg>