<?xml version="1.0" encoding="utf-8"?>
<svg viewBox="0 0 500 500" xmlns="http://www.w3.org/2000/svg">
  <path d="M 496.581 243.868 L 475.59 230.874 C 475.413 228.835 475.213 226.798 474.993 224.76 L 493.032 207.935 C 494.866 206.231 495.681 203.696 495.19 201.241 C 494.707 198.787 492.984 196.756 490.639 195.882 L 467.578 187.26 C 466.999 185.269 466.397 183.285 465.772 181.306 L 480.157 161.328 C 483.299 156.973 480.757 150.834 475.456 149.972 L 451.139 146.018 C 450.194 144.174 449.21 142.357 448.217 140.557 L 458.434 118.129 C 459.479 115.854 459.266 113.198 457.872 111.118 C 456.487 109.032 454.117 107.817 451.615 107.91 L 426.935 108.769 C 425.659 107.175 424.361 105.598 423.036 104.041 L 428.708 80.003 C 429.284 77.565 428.555 75.004 426.782 73.233 C 425.013 71.464 422.452 70.735 420.017 71.308 L 395.984 76.973 C 394.424 75.651 392.843 74.352 391.246 73.076 L 392.109 48.398 C 392.202 45.897 390.99 43.526 388.906 42.139 C 386.824 40.746 384.172 40.531 381.894 41.573 L 359.473 51.794 C 357.664 50.797 355.844 49.82 354.012 48.865 L 350.047 24.544 C 349.183 19.25 343.051 16.711 338.696 19.844 L 318.704 34.229 C 316.738 33.603 314.759 33 312.763 32.427 L 304.14 9.364 C 303.267 7.013 301.238 5.287 298.779 4.801 C 296.326 4.319 293.798 5.136 292.091 6.962 L 275.266 25.013 C 273.231 24.787 271.191 24.588 269.152 24.416 L 256.158 3.421 C 253.333 -1.141 246.698 -1.141 243.875 3.421 L 230.882 24.416 C 228.838 24.586 226.798 24.785 224.763 25.013 L 207.932 6.962 C 204.272 3.029 197.753 4.328 195.884 9.364 L 187.263 32.427 C 185.264 33 183.288 33.607 181.315 34.229 L 161.328 19.844 C 159.296 18.378 156.649 18.07 154.338 19.033 C 152.027 19.994 150.377 22.079 149.972 24.544 L 146.008 48.865 C 144.171 49.816 142.357 50.794 140.546 51.794 L 118.123 41.57 C 115.846 40.528 113.194 40.744 111.115 42.139 C 109.029 43.525 107.814 45.897 107.909 48.398 L 108.768 73.076 C 107.171 74.355 105.59 75.654 104.029 76.973 L 79.997 71.31 C 77.56 70.739 74.998 71.465 73.228 73.233 C 71.454 75.004 70.724 77.565 71.301 80.003 L 76.964 104.041 C 75.65 105.598 74.351 107.175 73.076 108.769 L 48.396 107.91 C 45.896 107.833 43.533 109.043 42.139 111.116 C 40.745 113.198 40.531 115.85 41.57 118.127 L 51.792 140.557 C 50.798 142.357 49.816 144.174 48.862 146.018 L 24.548 149.972 C 19.25 150.838 16.709 156.973 19.847 161.328 L 34.232 181.309 C 33.607 183.281 33 185.262 32.426 187.26 L 9.363 195.882 C 4.342 197.768 3.051 204.275 6.971 207.935 L 25.012 224.759 C 24.787 226.79 24.588 228.835 24.416 230.874 L 3.422 243.868 C 1.295 245.186 0 247.511 0.004 250.01 C 0.004 252.518 1.299 254.84 3.423 256.148 L 24.416 269.143 C 24.588 271.188 24.787 273.228 25.012 275.258 L 6.969 292.087 C 3.04 295.746 4.334 302.259 9.363 304.137 L 32.426 312.759 C 33 314.755 33.607 316.738 34.232 318.71 L 19.847 338.692 C 16.703 343.05 19.25 349.19 24.555 350.043 L 48.865 353.999 C 49.816 355.842 50.79 357.659 51.794 359.468 L 41.57 381.889 C 40.528 384.166 40.744 386.82 42.139 388.901 C 43.523 390.984 45.894 392.2 48.396 392.106 L 73.064 391.242 C 74.351 392.846 75.646 394.417 76.964 395.981 L 71.301 420.023 C 70.724 422.457 71.454 425.015 73.228 426.779 C 74.995 428.554 77.56 429.283 79.997 428.699 L 104.029 423.039 C 105.592 424.367 107.175 425.656 108.769 426.926 L 107.91 451.611 C 107.718 456.975 113.241 460.665 118.123 458.43 L 140.546 448.213 C 142.352 449.218 144.171 450.195 146.008 451.142 L 149.972 475.448 C 150.37 477.92 152.023 480.01 154.338 480.965 C 156.649 481.925 159.292 481.62 161.328 480.158 L 181.306 465.765 C 183.278 466.389 185.26 467.001 187.257 467.576 L 195.88 490.63 C 196.753 492.977 198.783 494.702 201.239 495.182 C 203.692 495.679 206.228 494.859 207.928 493.022 L 224.759 474.979 C 226.789 475.214 228.832 475.409 230.878 475.59 L 243.871 496.582 C 245.188 498.708 247.51 499.999 250.01 500 C 252.51 500 254.833 498.708 256.152 496.582 L 269.146 475.59 C 271.191 475.409 273.232 475.214 275.262 474.979 L 292.087 493.022 C 293.788 494.858 296.322 495.676 298.775 495.182 C 301.23 494.699 303.259 492.975 304.134 490.63 L 312.757 467.576 C 314.753 467.001 316.738 466.389 318.71 465.765 L 338.692 480.158 C 343.05 483.294 349.184 480.749 350.043 475.448 L 354.008 451.142 C 355.842 450.191 357.656 449.202 359.467 448.212 L 381.89 458.43 C 386.771 460.672 392.305 456.979 392.106 451.611 L 391.246 426.927 C 392.843 425.658 394.421 424.361 395.978 423.039 L 420.013 428.699 C 422.455 429.273 425.013 428.562 426.777 426.779 C 428.548 425.015 429.279 422.457 428.703 420.023 L 423.043 395.981 C 424.361 394.417 425.659 392.846 426.928 391.242 L 451.608 392.106 C 454.109 392.201 456.479 390.988 457.865 388.902 C 459.262 386.823 459.476 384.165 458.43 381.888 L 448.212 359.469 C 449.21 357.659 450.191 355.842 451.135 354 L 475.452 350.043 C 477.923 349.647 480.01 347.993 480.964 345.677 C 481.92 343.366 481.614 340.723 480.153 338.692 L 465.768 318.712 C 466.389 316.738 466.997 314.755 467.574 312.759 L 490.634 304.137 C 492.979 303.263 494.703 301.234 495.186 298.775 C 495.68 296.322 494.862 293.788 493.026 292.087 L 474.989 275.258 C 475.208 273.227 475.409 271.184 475.585 269.144 L 496.577 256.148 C 498.704 254.834 499.999 252.512 499.996 250.01 C 499.996 247.508 498.708 245.182 496.581 243.868 Z M 356.09 417.998 C 348.075 416.27 342.977 408.369 344.698 400.328 C 346.412 392.297 354.307 387.186 362.321 388.914 C 370.336 390.631 375.442 398.545 373.723 406.57 C 372.004 414.598 364.102 419.715 356.09 417.998 Z M 348.958 369.758 C 341.641 368.189 334.44 372.856 332.883 380.173 L 325.431 414.95 C 302.433 425.388 276.897 431.186 250.001 431.186 C 222.488 431.186 196.396 425.101 172.989 414.219 L 165.54 379.441 C 163.974 372.123 156.779 367.462 149.471 369.032 L 118.768 375.625 C 113.061 369.752 107.758 363.502 102.893 356.914 L 252.285 356.914 C 253.974 356.914 255.101 356.608 255.101 355.069 L 255.101 302.224 C 255.101 300.688 253.974 300.38 252.283 300.38 L 208.595 300.38 L 208.595 266.884 L 255.85 266.884 C 260.162 266.884 278.914 268.116 284.908 292.084 C 286.787 299.455 290.908 323.43 293.727 331.106 C 296.537 339.715 307.972 356.913 320.16 356.913 L 394.601 356.913 C 395.447 356.913 396.349 356.817 397.3 356.646 C 392.134 363.66 386.476 370.3 380.369 376.508 L 348.959 369.758 Z M 142.34 417.271 C 134.322 419.002 126.43 413.891 124.706 405.859 C 122.991 397.815 128.088 389.918 136.104 388.19 C 144.121 386.475 152.017 391.586 153.735 399.615 C 155.45 407.643 150.35 415.553 142.338 417.271 Z M 85.666 187.47 C 88.993 194.974 85.608 203.768 78.114 207.09 C 70.62 210.418 61.848 207.03 58.525 199.521 C 55.198 192.011 58.581 183.232 66.077 179.901 C 73.576 176.575 82.35 179.966 85.666 187.468 Z M 68.249 228.758 L 100.233 214.546 C 107.069 211.505 110.148 203.5 107.115 196.66 L 100.53 181.765 L 126.436 181.765 L 126.436 298.537 L 74.169 298.537 C 69.535 282.229 67.191 265.354 67.203 248.397 C 67.203 241.76 67.561 235.202 68.249 228.757 Z M 208.603 217.417 L 208.603 182.998 L 270.293 182.998 C 273.48 182.998 292.793 186.681 292.793 201.122 C 292.793 213.113 277.98 217.411 265.799 217.411 L 208.603 217.411 L 208.603 217.417 Z M 432.802 248.397 C 432.802 252.963 432.634 257.483 432.3 261.967 L 413.544 261.967 C 411.668 261.967 410.912 263.201 410.912 265.039 L 410.912 273.652 C 410.912 293.925 399.481 298.336 389.463 299.459 C 379.923 300.532 369.346 295.464 368.043 289.627 C 362.414 257.975 353.038 251.215 338.229 239.533 C 356.608 227.864 375.729 210.647 375.729 187.601 C 375.729 162.718 358.671 147.045 347.041 139.359 C 330.729 128.606 312.667 126.449 307.794 126.449 L 113.829 126.449 C 140.13 97.095 175.779 76.3 216.097 68.734 L 238.96 92.718 C 244.117 98.134 252.694 98.331 258.098 93.159 L 283.679 68.691 C 337.282 78.671 382.665 112.038 408.82 157.816 L 391.307 197.372 C 388.283 204.218 391.369 212.224 398.195 215.257 L 431.913 230.233 C 432.496 236.219 432.802 242.266 432.802 248.397 Z M 238.969 48.33 C 244.892 42.655 254.288 42.88 259.96 48.812 C 265.62 54.762 265.406 64.167 259.469 69.837 C 253.545 75.513 244.148 75.292 238.476 69.349 C 232.817 63.406 233.037 54.003 238.969 48.33 Z M 412.761 188.191 C 416.076 180.688 424.849 177.3 432.347 180.629 C 439.843 183.953 443.225 192.744 439.899 200.247 C 436.586 207.755 427.808 211.146 420.309 207.816 C 412.823 204.489 409.441 195.706 412.761 188.191 Z" style=""/>
</svg>